<?xml version="1.0" encoding="iso-8859-1"?>
<!-- Generator: Adobe Illustrator 19.2.1, SVG Export Plug-In . SVG Version: 6.00 Build 0)  -->
<svg version="1.1" xmlns="http://www.w3.org/2000/svg" xmlns:xlink="http://www.w3.org/1999/xlink" x="0px" y="0px"
	 viewBox="0 0 24 24" style="enable-background:new 0 0 24 24;" xml:space="preserve">
<g id="Pompkin">
</g>
<g id="Layer_10">
</g>
<g id="Bat">
</g>
<g id="Ghost">
</g>
<g id="Bone_Hand">
</g>
<g id="Tree_Ghost">
</g>
<g id="Gate">
</g>
<g id="Cemetery_1">
</g>
<g id="Cemetery_2">
</g>
<g id="Devil_x27_s_Fork">
</g>
<g id="Night_Candle">
</g>
<g id="Canlestick">
</g>
<g id="Black_Cat">
</g>
<g id="Witch_Cauldron">
</g>
<g id="Corn_Candy">
</g>
<g id="Layer_29">
</g>
<g id="Bones">
</g>
<g id="Witch_Broom">
	<g>
		<g>
			<path d="M20.151,24c-0.005,0-0.011,0-0.017,0c-2.406-0.079-4.947-2.112-6.397-4.093c-1.177-1.607-2.501-4.596-2.588-6.62
				c-0.011-0.269,0.192-0.499,0.461-0.52c0.132-0.01,0.237-0.055,0.314-0.132l0.708-0.708c0.078-0.079,0.123-0.184,0.134-0.315
				c0.021-0.269,0.22-0.475,0.52-0.461c2.022,0.085,5.012,1.41,6.62,2.587h0.001c1.98,1.451,4.015,3.992,4.093,6.398
				c0.002,0.06-0.007,0.121-0.026,0.177c-0.051,0.148-0.234,0.335-0.383,0.384c-0.389,0.128-0.757-0.13-1.273-0.484
				c-0.032-0.022-0.068-0.047-0.106-0.073c0.068,0.132,0.14,0.264,0.2,0.377c0.529,0.98,0.985,1.828,0.485,2.359
				c-0.504,0.534-1.172,0.032-1.763-0.412c-0.618-0.464-1.192-0.861-1.44-0.627c-0.152,0.143-0.143,0.236-0.139,0.276
				c0.032,0.315,0.531,0.76,0.858,0.961c0.193,0.119,0.282,0.353,0.217,0.57C20.566,23.856,20.371,24,20.151,24z M12.183,13.644
				c0.219,1.776,1.345,4.284,2.361,5.671c1,1.366,2.551,2.759,4.15,3.369c-0.069-0.148-0.118-0.306-0.135-0.47
				c-0.028-0.285,0.025-0.708,0.448-1.106c0.883-0.832,1.992,0.004,2.727,0.556c0.067,0.051,0.146,0.109,0.225,0.167
				c-0.127-0.283-0.308-0.617-0.428-0.84c-0.476-0.882-0.819-1.52-0.44-1.964c0.468-0.547,1.171-0.065,1.793,0.361
				c0.005,0.004,0.01,0.007,0.015,0.011c-0.415-1.838-2.017-3.707-3.582-4.854l0,0c-1.39-1.017-3.897-2.143-5.672-2.361
				c-0.072,0.169-0.175,0.321-0.305,0.451l-0.707,0.707C12.503,13.47,12.352,13.572,12.183,13.644z"/>
		</g>
		<g>
			<path d="M11.572,13.779c-0.384,0-0.769-0.146-1.061-0.438c-0.283-0.283-0.439-0.66-0.439-1.061c0-0.401,0.156-0.778,0.439-1.061
				l0.707-0.707c0,0,0,0,0,0c0.568-0.565,1.559-0.565,2.121,0c0.585,0.585,0.585,1.537,0,2.122l-0.707,0.707
				C12.341,13.633,11.956,13.779,11.572,13.779z M11.926,11.219l-0.707,0.708c-0.095,0.094-0.146,0.22-0.146,0.354
				c0,0.133,0.052,0.259,0.146,0.354c0.195,0.195,0.512,0.195,0.707,0l0.707-0.707c0.195-0.195,0.195-0.512,0-0.708
				C12.443,11.03,12.115,11.03,11.926,11.219z"/>
		</g>
		<g>
			<path d="M10.513,12.425c-0.177,0-0.349-0.094-0.439-0.259c-0.007-0.013-0.718-1.277-2.678-2.66
				C6.57,8.925,5.798,8.518,5.115,8.158c-1.044-0.55-1.946-1.024-2.528-1.876c-0.099-0.145-2.43-3.562-2.583-4.717
				c-0.031-0.237,0.11-0.464,0.338-0.54l3-1c0.137-0.047,0.284-0.03,0.408,0.041c0.123,0.071,0.211,0.192,0.239,0.332
				c0.106,0.511,1.496,3.301,2.379,4.264c0.56,0.609,1.156,1.083,1.788,1.585c0.428,0.339,0.857,0.681,1.279,1.067
				c1.073,0.982,2.497,3.187,2.558,3.28c0.149,0.232,0.082,0.542-0.15,0.691c-0.232,0.147-0.543,0.082-0.69-0.15
				c-0.015-0.021-1.414-2.188-2.393-3.083c-0.404-0.37-0.815-0.696-1.225-1.021C6.9,6.527,6.244,6.006,5.632,5.338
				C4.811,4.442,3.644,2.25,3.19,1.13l-2.072,0.69c0.351,0.844,1.367,2.542,2.295,3.897c0.441,0.646,1.203,1.048,2.168,1.556
				C6.29,7.647,7.094,8.07,7.972,8.689c2.17,1.531,2.947,2.94,2.979,3c0.132,0.242,0.041,0.544-0.2,0.676
				C10.675,12.406,10.593,12.425,10.513,12.425z"/>
		</g>
	</g>
</g>
<g id="Owl">
</g>
<g id="Scythe">
</g>
<g id="Grim_Reaper">
</g>
<g id="Coffin">
</g>
<g id="Dracula">
</g>
<g id="Frankenstein">
</g>
<g id="Layer_40">
</g>
<g id="Toilet_Paper">
</g>
<g id="Skull">
</g>
<g id="Skull_Cake">
</g>
<g id="Eyeball">
</g>
<g id="Castle">
</g>
<g id="Witch_x27_s_Hat">
</g>
<g id="Cobweb_1">
</g>
<g id="Cobweb_2">
</g>
<g id="Spider">
</g>
<g id="Full_Moon">
</g>
<g id="Crescent">
</g>
<g id="Crow">
</g>
<g id="Candy_Holder">
</g>
<g id="Bloody_Knife">
</g>
<g id="Bloody_Axe">
</g>
</svg>
