<?xml version="1.0" encoding="iso-8859-1"?>
<!-- Generator: Adobe Illustrator 19.2.1, SVG Export Plug-In . SVG Version: 6.00 Build 0)  -->
<svg version="1.1" xmlns="http://www.w3.org/2000/svg" xmlns:xlink="http://www.w3.org/1999/xlink" x="0px" y="0px"
	 viewBox="0 0 30 30" style="enable-background:new 0 0 30 30;" xml:space="preserve">
<g id="Armchair_1">
	<g id="XMLID_55_">
		<g id="XMLID_56_">
			<path d="M15,11c-5.104,0-9.529-0.388-12.342-0.714C1.143,10.111,0,8.829,0,7.305v-2.61c0-1.524,1.143-2.806,2.659-2.98
				C5.479,1.389,9.909,1,15,1c5.147,0,9.555,0.387,12.345,0.712C28.858,1.889,30,3.169,30,4.692v2.614
				c0,1.523-1.143,2.805-2.657,2.98C24.539,10.612,20.122,11,15,11z M15,2C9.956,2,5.567,2.385,2.774,2.708
				C1.763,2.825,1,3.679,1,4.695v2.61c0,1.016,0.762,1.871,1.773,1.987C5.56,9.615,9.943,10,15,10c5.074,0,9.45-0.384,12.228-0.707
				C28.238,9.176,29,8.322,29,7.306V4.692c0-1.015-0.761-1.869-1.771-1.987C24.465,2.384,20.1,2,15,2z"/>
		</g>
		<g id="XMLID_58_">
			<path d="M27.5,29h-2c-0.721,0-1.631-0.349-1.87-2.011C23.325,24.859,23,22.271,23,18.5c0-3.859,0.288-6.452,0.504-8.066
				c0.037-0.273,0.284-0.463,0.562-0.429c0.274,0.037,0.466,0.289,0.429,0.562C24.283,12.153,24,14.701,24,18.5
				c0,3.705,0.32,6.251,0.62,8.347C24.785,28,25.25,28,25.5,28h2c0.366,0,0.868-0.111,1.005-1.071C28.731,25.346,29,22.598,29,18.5
				c0-3.794-0.39-8.963-0.478-9.358c-0.126-0.246-0.013-0.504,0.233-0.63c0.245-0.125,0.564,0.014,0.69,0.26
				C29.652,9.176,30,15.268,30,18.5c0,3.337-0.17,6.221-0.505,8.571C29.32,28.297,28.593,29,27.5,29z"/>
		</g>
		<g id="XMLID_7_">
			<path d="M4.5,29h-2c-1.093,0-1.82-0.703-1.995-1.929C0.17,24.721,0,21.837,0,18.5c0-3.232,0.348-9.324,0.555-9.729
				c0.126-0.245,0.428-0.343,0.673-0.216c0.222,0.114,0.322,0.37,0.247,0.6C1.382,9.641,1,14.744,1,18.5
				c0,4.098,0.269,6.846,0.495,8.429C1.632,27.889,2.134,28,2.5,28h2c0.25,0,0.715,0,0.88-1.153C5.68,24.751,6,22.205,6,18.5
				c0-3.799-0.283-6.347-0.496-7.934c-0.037-0.273,0.155-0.525,0.429-0.562c0.272-0.035,0.525,0.156,0.562,0.429
				C6.712,12.048,7,14.641,7,18.5c0,3.771-0.325,6.359-0.63,8.489C6.131,28.651,5.221,29,4.5,29z"/>
		</g>
		<g id="XMLID_59_">
			<path d="M15,29c-3.676,0-6.87-0.766-8.902-1.408c-0.263-0.083-0.409-0.364-0.326-0.627c0.083-0.263,0.363-0.41,0.627-0.326
				C8.364,27.26,11.451,28,15,28c2.734,0,5.474-0.446,8.373-1.365c0.266-0.083,0.544,0.063,0.627,0.326s-0.063,0.544-0.326,0.627
				C20.676,28.538,17.838,29,15,29z"/>
		</g>
	</g>
</g>
<g id="Armchair_2">
</g>
<g id="Armchair_3">
</g>
<g id="Armchair_4">
</g>
<g id="Sofa_1">
</g>
<g id="Sofa_2">
</g>
<g id="Sofa_3">
</g>
<g id="Sofa_4">
</g>
<g id="Sofa_5">
</g>
<g id="Sofa_6">
</g>
<g id="Desk_1">
</g>
<g id="Desk_2">
</g>
<g id="Desk_3">
</g>
<g id="Lamp">
</g>
<g id="Bed_1">
</g>
<g id="Bunk_Beds">
</g>
<g id="Bed_2">
</g>
<g id="Bed_3">
</g>
<g id="Bed_4">
</g>
<g id="Bed_5">
</g>
<g id="Table_1">
</g>
<g id="Table_2">
</g>
<g id="Table_3">
</g>
<g id="Table_4">
</g>
<g id="Rug_1">
</g>
<g id="Rug_2">
</g>
<g id="Rug_3">
</g>
<g id="Tub_1">
</g>
<g id="Tub_2">
</g>
<g id="Jacuzzi">
</g>
<g id="Corner_Tub">
</g>
<g id="Shower_Tray">
</g>
<g id="Sink_1">
</g>
<g id="Sink_2">
</g>
<g id="Toilette">
</g>
<g id="Stove">
</g>
<g id="Kitchen_Sink">
</g>
<g id="Island">
</g>
<g id="Eat-in_Kitchen">
</g>
<g id="Tv_Stand">
</g>
</svg>
