<?xml version="1.0" encoding="iso-8859-1"?>
<!-- Generator: Adobe Illustrator 19.2.1, SVG Export Plug-In . SVG Version: 6.00 Build 0)  -->
<svg version="1.1" xmlns="http://www.w3.org/2000/svg" xmlns:xlink="http://www.w3.org/1999/xlink" x="0px" y="0px"
	 viewBox="0 0 24 24" style="enable-background:new 0 0 24 24;" xml:space="preserve">
<g id="Armchair_1">
</g>
<g id="Armchair_2">
</g>
<g id="Armchair_3">
</g>
<g id="Armchair_4">
</g>
<g id="Sofa_1">
</g>
<g id="Sofa_2">
</g>
<g id="Sofa_3">
</g>
<g id="Sofa_4">
</g>
<g id="Sofa_5">
</g>
<g id="Sofa_6">
</g>
<g id="Desk_1">
</g>
<g id="Desk_2">
</g>
<g id="Desk_3">
</g>
<g id="Lamp">
</g>
<g id="Bed_1">
</g>
<g id="Bunk_Beds">
</g>
<g id="Bed_2">
</g>
<g id="Bed_3">
</g>
<g id="Bed_4">
</g>
<g id="Bed_5">
</g>
<g id="Table_1">
</g>
<g id="Table_2">
</g>
<g id="Table_3">
</g>
<g id="Table_4">
</g>
<g id="Rug_1">
</g>
<g id="Rug_2">
</g>
<g id="Rug_3">
</g>
<g id="Tub_1">
</g>
<g id="Tub_2">
</g>
<g id="Jacuzzi">
</g>
<g id="Corner_Tub">
</g>
<g id="Shower_Tray">
</g>
<g id="Sink_1">
</g>
<g id="Sink_2">
</g>
<g id="Toilette">
</g>
<g id="Stove">
</g>
<g id="Kitchen_Sink">
	<g id="XMLID_334_">
		<g id="XMLID_335_">
			<circle cx="4.5" cy="13.5" r="0.5"/>
		</g>
		<g id="XMLID_336_">
			<path d="M6.5,10C6.224,10,6,9.776,6,9.5v-4C6,5.224,6.224,5,6.5,5S7,5.224,7,5.5v4C7,9.776,6.776,10,6.5,10z"/>
		</g>
		<g id="XMLID_337_">
			<path d="M7,7H6C5.724,7,5.5,6.776,5.5,6.5v-1C5.5,5.224,5.724,5,6,5h1c0.276,0,0.5,0.224,0.5,0.5v1C7.5,6.776,7.276,7,7,7z"/>
		</g>
		<g id="XMLID_338_">
			<path d="M8.5,8C8.224,8,8,7.776,8,7.5C8,7.043,7.611,7.002,7.492,7H5.5C5.375,7.013,5,7.088,5,7.5C5,7.776,4.776,8,4.5,8
				S4,7.776,4,7.5c0-1.032,0.878-1.462,1.469-1.499L7.5,6C8.107,6.01,9,6.417,9,7.5C9,7.776,8.776,8,8.5,8z"/>
		</g>
		<g id="XMLID_339_">
			<path d="M7.5,7h-2C5.224,7,5,6.776,5,6.5v-1C5,5.224,5.224,5,5.5,5h2C7.776,5,8,5.224,8,5.5v1C8,6.776,7.776,7,7.5,7z M6,6h1H6z"
				/>
		</g>
		<g id="XMLID_340_">
			<path d="M8.5,16h-4C3.121,16,2,14.879,2,13.5v-4c0-0.438,0.116-0.858,0.346-1.252c0.139-0.239,0.445-0.321,0.684-0.18
				c0.238,0.139,0.319,0.444,0.18,0.684C3.07,8.99,3,9.242,3,9.5v4C3,14.327,3.673,15,4.5,15h4c0.827,0,1.5-0.673,1.5-1.5v-4
				c0-0.258-0.07-0.51-0.209-0.748c-0.14-0.239-0.059-0.545,0.18-0.684c0.236-0.142,0.544-0.06,0.684,0.18
				C10.884,8.642,11,9.063,11,9.5v4C11,14.879,9.879,16,8.5,16z"/>
		</g>
		<g id="XMLID_341_">
			<path d="M22.5,18h-21C0.673,18,0,17.327,0,16.5v-10C0,5.673,0.673,5,1.5,5h1.796c0.276,0,0.5,0.224,0.5,0.5S3.572,6,3.296,6H1.5
				C1.225,6,1,6.225,1,6.5v10C1,16.775,1.225,17,1.5,17h21c0.275,0,0.5-0.225,0.5-0.5v-10C23,6.225,22.775,6,22.5,6H9.734
				c-0.276,0-0.5-0.224-0.5-0.5S9.458,5,9.734,5H22.5C23.327,5,24,5.673,24,6.5v10C24,17.327,23.327,18,22.5,18z"/>
		</g>
		<g id="XMLID_342_">
			<path d="M20.5,9h-7C13.224,9,13,8.776,13,8.5S13.224,8,13.5,8h7C20.776,8,21,8.224,21,8.5S20.776,9,20.5,9z"/>
		</g>
		<g id="XMLID_343_">
			<path d="M20.5,11h-7c-0.276,0-0.5-0.224-0.5-0.5s0.224-0.5,0.5-0.5h7c0.276,0,0.5,0.224,0.5,0.5S20.776,11,20.5,11z"/>
		</g>
		<g id="XMLID_344_">
			<path d="M20.5,13h-7c-0.276,0-0.5-0.224-0.5-0.5s0.224-0.5,0.5-0.5h7c0.276,0,0.5,0.224,0.5,0.5S20.776,13,20.5,13z"/>
		</g>
		<g id="XMLID_345_">
			<path d="M20.5,15h-7c-0.276,0-0.5-0.224-0.5-0.5s0.224-0.5,0.5-0.5h7c0.276,0,0.5,0.224,0.5,0.5S20.776,15,20.5,15z"/>
		</g>
	</g>
</g>
<g id="Island">
</g>
<g id="Eat-in_Kitchen">
</g>
<g id="Tv_Stand">
</g>
</svg>
