<?xml version="1.0" encoding="iso-8859-1"?>
<!-- Generator: Adobe Illustrator 19.2.1, SVG Export Plug-In . SVG Version: 6.00 Build 0)  -->
<svg version="1.1" xmlns="http://www.w3.org/2000/svg" xmlns:xlink="http://www.w3.org/1999/xlink" x="0px" y="0px"
	 viewBox="0 0 30 30" style="enable-background:new 0 0 30 30;" xml:space="preserve">
<g id="Mail">
</g>
<g id="Open_Mail">
</g>
<g id="Mail_Attachmet">
</g>
<g id="Mails">
</g>
<g id="Trash">
</g>
<g id="Trash_Full">
</g>
<g id="Preferences_1">
</g>
<g id="Preferences_2">
</g>
<g id="Mouse">
</g>
<g id="Computer">
</g>
<g id="Notebook">
</g>
<g id="Mobile_Phone">
</g>
<g id="Print">
</g>
<g id="Calculator">
</g>
<g id="Tag">
</g>
<g id="Paperclip">
</g>
<g id="Heart">
</g>
<g id="Lock">
</g>
<g id="Lock_Open">
</g>
<g id="Key_1">
</g>
<g id="Star">
</g>
<g id="Add">
</g>
<g id="Remove">
</g>
<g id="Error">
</g>
<g id="Check_1">
</g>
<g id="Time">
</g>
<g id="Question_Mark">
</g>
<g id="Error_Mark">
</g>
<g id="Sand-Glass">
</g>
<g id="Battery_Full">
</g>
<g id="Battery_Charge">
</g>
<g id="Battery_Half">
</g>
<g id="Battery_Low">
</g>
<g id="No_Battery">
</g>
<g id="Key_2">
</g>
<g id="Link">
</g>
<g id="Brake_Link">
</g>
<g id="Pencil">
</g>
<g id="At">
</g>
<g id="Reply">
</g>
<g id="Accessible">
</g>
<g id="Up_Arrow">
</g>
<g id="Brush">
</g>
<g id="Design_Mug">
</g>
<g id="Design">
</g>
<g id="Server">
</g>
<g id="Database">
</g>
<g id="Save">
</g>
<g id="Female">
</g>
<g id="Male">
</g>
<g id="Book">
</g>
<g id="Power">
</g>
<g id="Reload">
</g>
<g id="Map">
</g>
<g id="Loction_1">
</g>
<g id="Location_2">
</g>
<g id="Globe">
</g>
<g id="Suitcase">
</g>
<g id="Callendar">
</g>
<g id="Cloud_Off">
</g>
<g id="File_1">
</g>
<g id="File_2">
</g>
<g id="Folder">
</g>
<g id="Open_Folder">
</g>
<g id="Cloud">
</g>
<g id="Upload_Cloud">
</g>
<g id="Download_Cloud">
</g>
<g id="Eye">
</g>
<g id="Invisible">
</g>
<g id="Assignment">
</g>
<g id="Note_Book">
</g>
<g id="Webpage">
</g>
<g id="Mailbox">
</g>
<g id="Drive">
</g>
<g id="Disc">
</g>
<g id="Wifi_1">
	<g>
		<path d="M15,26c-1.103,0-2-0.897-2-2s0.897-2,2-2s2,0.897,2,2S16.103,26,15,26z M15,23c-0.552,0-1,0.448-1,1s0.448,1,1,1
			s1-0.448,1-1S15.552,23,15,23z"/>
	</g>
	<g>
		<path d="M19.848,19.736c-0.112,0-0.225-0.037-0.317-0.114C18.259,18.576,16.649,18,15,18s-3.259,0.576-4.53,1.622
			c-0.212,0.176-0.527,0.146-0.703-0.068c-0.176-0.213-0.146-0.528,0.068-0.703C11.284,17.657,13.119,17,15,17
			s3.716,0.657,5.165,1.851c0.214,0.175,0.244,0.49,0.068,0.703C20.135,19.674,19.991,19.736,19.848,19.736z"/>
	</g>
	<g>
		<path d="M24.458,15.699c-0.121,0-0.242-0.044-0.338-0.132C21.616,13.267,18.377,12,15,12s-6.616,1.267-9.12,3.567
			c-0.202,0.187-0.518,0.175-0.706-0.03c-0.187-0.203-0.174-0.52,0.03-0.706C7.893,12.36,11.371,11,15,11s7.107,1.36,9.796,3.831
			c0.204,0.187,0.217,0.503,0.03,0.706C24.728,15.645,24.593,15.699,24.458,15.699z"/>
	</g>
	<g>
		<path d="M29,10.621c-0.124,0-0.248-0.046-0.345-0.138C24.938,6.947,20.089,5,15,5C9.908,5,5.059,6.94,1.344,10.464
			c-0.199,0.189-0.517,0.183-0.706-0.019c-0.19-0.2-0.183-0.517,0.019-0.706C4.557,6.038,9.651,4,15,4
			c5.347,0,10.44,2.045,14.345,5.759c0.2,0.19,0.208,0.507,0.018,0.707C29.264,10.569,29.132,10.621,29,10.621z"/>
	</g>
</g>
<g id="Wifi_2">
</g>
<g id="Archive">
</g>
<g id="Archive_File">
</g>
<g id="News">
</g>
<g id="Home">
</g>
<g id="Collaboration">
</g>
<g id="Announcement">
</g>
<g id="Watch">
</g>
<g id="Clock">
</g>
<g id="Volume">
</g>
<g id="Mute">
</g>
<g id="Hand">
</g>
<g id="Layers">
</g>
<g id="Bell">
</g>
<g id="Speach_Bubble">
</g>
<g id="Speach_Bubbles">
</g>
<g id="Zoom_In">
</g>
<g id="Zoom_Out">
</g>
<g id="Search">
</g>
<g id="Back_Arrow">
</g>
<g id="Close">
</g>
<g id="Check_2">
</g>
<g id="Left_Arrow_2">
</g>
<g id="Right_Arrow_2">
</g>
</svg>
